:SAMPLES-PER-SECOND 30
:FRAME-RANGE 1-3358
:FULLY-SPECIFIED
:DEGREES
2099
root  22.6576 38.0303 -17.6507 1.02034 -48.2458 1.85889
RightUpLeg  -28.8623 10.1113 -12.7685
RightLeg  60.1453 -6.02886 -11.6863
RightFoot  -1.32676 -1.4993 16.8944
RightToes  -5.8209e-011 0 -3.6325e-017
Spine  10.9061 -3.13875 -4.38786
Spine1  -1.71152 -4.40351 2.56684
HEad  5.62064 -3.48438 -10.1615
LeftShoulder1  1.27929 -0.486702 -25.8884
LeftArm  -10.1727 -2.06686 -19.5631
LeftForeArm  12.1148 -2.78039 -15.602
LeftHand  0.635611 -2.58268 -9.05497
RightShoulder  0.818771 -0.720829 23.4096
RightArm  -29.8033 -1.7612 -3.66236
RightForeArm  -28.1767 -6.57569 8.32061
RightHand  0.370064 -1.23944 10.6315
LeftUpLeg  -7.04808 11.3871 -10.9728
LeftLeg  25.4745 8.62916 3.52408
LeftFoot  -23.9434 0.437867 2.66149
LeftToes  -4.03819e-010 -8.71445e-011 8.52097e-011
2100
root  21.9361 38.3897 -16.8835 2.83984 -46.0724 -0.32373
RightUpLeg  -30.3139 7.9399 -8.43086
RightLeg  52.1327 -7.41784 -10.4614
RightFoot  -2.4872 -1.39503 17.6678
RightToes  -5.8209e-011 0 -3.6325e-017
Spine  10.4962 -3.57677 -3.93311
Spine1  -2.48085 -4.77347 4.14658
HEad  6.49937 -1.29428 -8.6603
LeftShoulder1  1.31589 -0.586604 -26.0057
LeftArm  -9.87122 -2.90407 -20.6483
LeftForeArm  12.9199 -2.49962 -15.6815
LeftHand  0.629542 -2.62968 -8.91032
RightShoulder  0.825944 -1.00444 27.272
RightArm  -26.67 -2.16652 -1.62411
RightForeArm  -25.314 -6.13051 9.83191
RightHand  0.35852 -0.954235 9.59279
LeftUpLeg  -2.95145 7.20551 -8.6722
LeftLeg  20.7337 10.65 1.88261
LeftFoot  -23.0708 0.388135 2.42858
LeftToes  -4.03819e-010 -8.71445e-011 8.52097e-011
2101
root  21.2312 38.5507 -16.1306 3.89769 -43.7405 -1.36212
RightUpLeg  -31.2951 5.78838 -5.27229
RightLeg  42.6706 -8.37569 -8.45987
RightFoot  -3.07322 -1.43325 19.365
RightToes  -5.8209e-011 0 -3.6325e-017
Spine  10.1598 -3.98647 -4.22682
Spine1  -3.25019 -5.1814 5.70747
HEad  7.02161 0.181972 -7.30153
LeftShoulder1  1.34885 -0.679922 -26.0797
LeftArm  -8.78379 -3.89347 -21.6994
LeftForeArm  12.8098 -2.78267 -15.7597
LeftHand  0.636802 -2.76923 -8.8489
RightShoulder  0.846453 -1.20652 31.2332
RightArm  -23.4757 -2.32923 0.610437
RightForeArm  -22.9193 -6.09035 11.2968
RightHand  0.351864 -0.80753 9.0912
LeftUpLeg  0.484573 5.89336 -7.25325
LeftLeg  16.7297 9.58247 0.288317
LeftFoot  -22.6347 0.382618 2.49384
LeftToes  -4.03819e-010 -8.71445e-011 8.52097e-011
2102
root  20.5152 38.5086 -15.3702 3.80817 -41.5251 -1.55957
RightUpLeg  -31.4335 5.47776 -3.67836
RightLeg  33.3133 -8.43341 -6.15749
RightFoot  -3.53101 -1.37661 19.6309
RightToes  -5.8209e-011 0 -3.6325e-017
Spine  10.3661 -4.22509 -4.9644
Spine1  -3.70281 -5.49759 6.84673
HEad  6.66893 0.884027 -6.06618
LeftShoulder1  1.39177 -0.817286 -26.0485
LeftArm  -7.93309 -5.15427 -22.6725
LeftForeArm  12.8848 -3.31745 -15.7159
LeftHand  0.641528 -2.88376 -8.78286
RightShoulder  1.08603 -0.850316 35.2829
RightArm  -20.4138 -2.86566 2.82712
RightForeArm  -21.2631 -5.84088 12.6091
RightHand  0.370842 -0.407809 8.7426
LeftUpLeg  3.83988 6.18762 -6.30983
LeftLeg  14.1949 7.03803 -0.742219
LeftFoot  -22.9524 0.419914 2.77276
LeftToes  -4.03819e-010 -8.71445e-011 8.52097e-011
2103
root  19.7629 38.2586 -14.5321 2.6841 -39.3476 -1.2818
RightUpLeg  -30.9524 6.24785 -3.23154
RightLeg  26.6153 -8.47692 -4.80611
RightFoot  -4.48156 -1.19005 19.175
RightToes  -5.8209e-011 0 -3.6325e-017
Spine  10.764 -4.33589 -5.34181
Spine1  -3.30976 -5.67069 6.93391
HEad  5.51388 0.818941 -5.30382
LeftShoulder1  1.46362 -1.0276 -26.1449
LeftArm  -6.99782 -6.97279 -23.5178
LeftForeArm  13.1245 -4.02084 -15.6124
LeftHand  0.630319 -2.99291 -8.50491
RightShoulder  1.60771 0.0134599 39.8344
RightArm  -18.6516 -3.48943 4.25652
RightForeArm  -20.277 -5.52598 13.2765
RightHand  0.423715 0.200041 8.80839
LeftUpLeg  7.22626 6.63882 -5.70321
LeftLeg  13.6441 4.52237 -1.10189
LeftFoot  -24.4573 0.488126 2.96604
LeftToes  -4.03819e-010 -8.71445e-011 8.52097e-011
